# xmcd
#
# Track frame offsets: 
#        150
#        14401
#        30567
#        42191
#        58070
#        75749
#        100824
#        116067
#        123874
#        133532
#        148826
#        165999
#        192221
#        216595
#        240438
#        253915
#        282323
#
# Disc length: 3950 seconds
#
# Revision: 1
# Processed by: cddbd v1.5.2PL0 Copyright (c) Steve Scherf et al.
# Submitted via: ExactAudioCopy v0.99pb5
#
DISCID=f30f6c11
DTITLE=Tony Joe White - Swamp Music The Complete Monument Recordings C
DTITLE=D4  
DYEAR=2006
DGENRE=Swamp Blues
TTITLE0=Mississippi Delta
TTITLE1=Chain Of Fools
TTITLE2=Woodpecker
TTITLE3=The Ballad Of Hollis Brown
TTITLE4=Blue Monday
TTITLE5=Tobacco Road\\Dead End Street
TTITLE6=Caress Me Babe!
TTITLE7=Dusty Marshmallow
TTITLE8=Just Look At You
TTITLE9=Skinny Legs and All
TTITLE10=Boom Boom (Live)
TTITLE11=Roosevelt And Ira Lee (Night Of The Mossacin) (Live)
TTITLE12=I Want You (Live)
TTITLE13=Groupy Girl (Live)
TTITLE14=Stud Spider (Live)
TTITLE15=Polk Salad Annie (Live)
TTITLE16=Save Your Sugar For Me (Live)
EXTD=
EXTT0=
EXTT1=
EXTT2=
EXTT3=
EXTT4=
EXTT5=
EXTT6=
EXTT7=
EXTT8=
EXTT9=
EXTT10=
EXTT11=
EXTT12=
EXTT13=
EXTT14=
EXTT15=
EXTT16=
PLAYORDER=
